<?xml version="1.0" encoding="UTF-8" standalone="no"?>
<!-- Created with Inkscape (http://www.inkscape.org/) -->

<svg
   width="50.262596mm"
   height="50.262051mm"
   viewBox="0 0 50.262596 50.262051"
   version="1.1"
   id="svg1"
   xml:space="preserve"
   xmlns:xlink="http://www.w3.org/1999/xlink"
   xmlns="http://www.w3.org/2000/svg"
   xmlns:svg="http://www.w3.org/2000/svg"><defs
     id="defs1"><linearGradient
       id="linearGradient107"><stop
         style="stop-color:#3c0082;stop-opacity:1;"
         offset="0"
         id="stop106" /><stop
         style="stop-color:#d42794;stop-opacity:1;"
         offset="1"
         id="stop107" /></linearGradient><linearGradient
       id="linearGradient12"><stop
         style="stop-color:#b40000;stop-opacity:1;"
         offset="0"
         id="stop11" /><stop
         style="stop-color:#ff6e00;stop-opacity:1;"
         offset="1"
         id="stop12" /></linearGradient><linearGradient
       xlink:href="#linearGradient12"
       id="linearGradient10"
       gradientUnits="userSpaceOnUse"
       gradientTransform="matrix(7.4199459,0,0,4.1737196,-140.39526,-84.363455)"
       x1="93.725754"
       y1="183.30582"
       x2="205.28992"
       y2="72.806122" /><linearGradient
       xlink:href="#linearGradient107"
       id="linearGradient106"
       gradientUnits="userSpaceOnUse"
       gradientTransform="matrix(7.4199459,0,0,4.1737196,-1573.1057,-1672.1908)"
       x1="93.725754"
       y1="183.30582"
       x2="205.28992"
       y2="72.806122" /></defs><g
     id="layer1"
     transform="translate(220.96819,-434.54194)"><path
       id="path1-3-1-8-3-8"
       style="fill:#0070ff;fill-opacity:1;stroke-width:0.261892"
       d="m -195.83686,434.54191 a 25.131184,25.130985 0 0 0 -24.89721,21.85965 l 9.31159,3.58531 15.41095,-11.45976 2.13372,0.91725 -0.0196,0.0145 15.78768,6.20531 5.95209,-4.40645 a 25.131184,25.130985 0 0 0 -23.67922,-16.71578 z m 0.12144,16.26929 -15.6311,11.62307 -0.0879,-0.11834 -9.46248,-3.64319 a 25.131184,25.130985 0 0 0 -0.0713,1.00045 25.131184,25.130985 0 0 0 25.1313,25.13077 25.131184,25.130985 0 0 0 25.1313,-25.13077 25.131184,25.130985 0 0 0 -0.86765,-6.51898 l -6.30401,4.66742 -0.0139,-0.0186 -0.005,0.0119 z" /><g
       id="g10"><rect
         style="fill:url(#linearGradient10);fill-opacity:1;stroke-width:12.7"
         id="rect5-3-7-7"
         width="640"
         x="566.35406"
         y="313.18326"
         height="360" /><path
         id="path1-3-1-8-0"
         style="fill:#ffffff;fill-opacity:1;stroke-width:0.261892"
         d="m 886.35412,468.05222 a 25.131184,25.130985 0 0 0 -24.89721,21.85965 l 9.31159,3.58531 15.41095,-11.45976 2.13372,0.91725 -0.0196,0.0145 15.78768,6.20531 5.95209,-4.40645 a 25.131184,25.130985 0 0 0 -23.67922,-16.71578 z m 0.12144,16.26929 -15.6311,11.62307 -0.0879,-0.11834 -9.46248,-3.64319 a 25.131184,25.130985 0 0 0 -0.0713,1.00045 25.131184,25.130985 0 0 0 25.1313,25.13077 25.131184,25.130985 0 0 0 25.1313,-25.13077 25.131184,25.130985 0 0 0 -0.86765,-6.51898 l -6.30401,4.66742 -0.0139,-0.0186 -0.005,0.0119 z" /><path
         style="font-variation-settings:'opsz' 36, 'wght' 700;fill:#f00000;fill-opacity:1;fill-rule:evenodd;stroke:#ffffff;stroke-width:2.3085;stroke-linejoin:round;stroke-dasharray:none;stroke-opacity:1;paint-order:stroke markers fill"
         d="m 868.83552,502.55208 c -0.0279,15.59736 -0.0279,15.59736 -0.0279,15.59736 z"
         id="path10-4" /><path
         style="font-variation-settings:'opsz' 36, 'wght' 700;fill:#f00000;fill-opacity:1;fill-rule:evenodd;stroke:#ffffff;stroke-width:2.3085;stroke-linejoin:round;stroke-dasharray:none;stroke-opacity:1;paint-order:stroke markers fill"
         d="m 878.10808,508.28946 c -0.0279,15.59736 -0.0279,15.59736 -0.0279,15.59736 z"
         id="path10-9-3" /><path
         style="font-variation-settings:'opsz' 36, 'wght' 700;fill:#f00000;fill-opacity:1;fill-rule:evenodd;stroke:#ffffff;stroke-width:2.3085;stroke-linejoin:round;stroke-dasharray:none;stroke-opacity:1;paint-order:stroke markers fill"
         d="m 889.21505,504.23772 c -0.0279,15.59736 -0.0279,15.59736 -0.0279,15.59736 z"
         id="path10-9-5-3" /><path
         style="font-variation-settings:'opsz' 36, 'wght' 700;fill:#f00000;fill-opacity:1;fill-rule:evenodd;stroke:#ffffff;stroke-width:2.3085;stroke-linejoin:round;stroke-dasharray:none;stroke-opacity:1;paint-order:stroke markers fill"
         d="m 904.33163,499.56326 c -0.0279,15.59736 -0.0279,15.59736 -0.0279,15.59736 z"
         id="path10-9-5-2-3" /><path
         style="font-variation-settings:'opsz' 36, 'wght' 700;fill:#f00000;fill-opacity:1;fill-rule:evenodd;stroke:#ffffff;stroke-width:2.3085;stroke-linejoin:round;stroke-dasharray:none;stroke-opacity:1;paint-order:stroke markers fill"
         d="m 899.64455,506.4766 c -0.0279,15.59736 -0.0279,15.59736 -0.0279,15.59736 z"
         id="path10-9-5-2-6-3" /><g
         id="g109"><rect
           style="fill:url(#linearGradient106);stroke-width:12.7"
           id="rect5-3-7-7-3"
           width="640"
           x="-866.35632"
           y="-1274.6442"
           height="360" /><g
           id="g108"><path
             id="path107"
             style="font-variation-settings:'opsz' 32, 'wght' 900;fill:#ffffff;fill-opacity:1;stroke-width:2.87215"
             d="m -564.40687,-1156.8712 a 22.280491,22.280491 0 0 0 -22.2805,22.2805 22.280491,22.280491 0 0 0 13.59882,20.4811 33.682412,33.682412 0 0 1 29.19617,-29.1651 22.280491,22.280491 0 0 0 -20.51449,-13.5965 z m 20.51449,13.5965 a 22.280491,22.280491 0 0 1 1.76603,8.684 22.280491,22.280491 0 0 1 -22.28052,22.2805 22.280491,22.280491 0 0 1 -8.68168,-1.7994 33.682412,33.682412 0 0 0 -0.30164,4.218 33.682412,33.682412 0 0 0 33.68243,33.6824 33.682412,33.682412 0 0 0 33.68243,-33.6824 33.682412,33.682412 0 0 0 -33.68243,-33.6824 33.682412,33.682412 0 0 0 -4.18462,0.2993 z" /><text
             xml:space="preserve"
             style="font-style:normal;font-variant:normal;font-weight:normal;font-stretch:normal;font-size:38.5993px;font-family:Inter;-inkscape-font-specification:'Inter, @opsz=32,wght=900';font-variant-ligatures:normal;font-variant-caps:normal;font-variant-numeric:normal;font-variant-east-asian:normal;font-variation-settings:'opsz' 32, 'wght' 900;text-align:center;letter-spacing:-1.6083px;writing-mode:lr-tb;direction:ltr;text-anchor:middle;fill:#ffffff;fill-opacity:1;stroke-width:5.80509"
             x="-546.771"
             y="-1040.5592"
             id="text108"><tspan
               id="tspan108"
               style="stroke-width:5.80509"
               x="-547.57513"
               y="-1040.5592">Downright Games</tspan></text></g></g></g></g></svg>
